<svg width="35" height="36" viewBox="0 0 35 36" fill="none" xmlns="http://www.w3.org/2000/svg">
<path d="M34.6497 14.9305C33.0275 6.94601 25.9645 0.9375 17.5 0.9375C7.83734 0.9375 0 8.77484 0 18.4375C0 28.1002 7.83734 35.9375 17.5 35.9375C27.1627 35.9375 35 28.1002 35 18.4375C35 17.2358 34.8774 16.0621 34.6461 14.927L34.6497 14.9305ZM17.5 27.8479C12.3043 27.8479 8.08959 23.6367 8.08959 18.4375C8.08959 13.2383 12.3008 9.02709 17.5 9.02709C22.0511 9.02709 25.8453 12.2573 26.7212 16.5491C26.8438 17.1587 26.9104 17.7894 26.9104 18.434C26.9104 23.6297 22.6992 27.8444 17.5 27.8444V27.8479Z" fill="#D8D8D8"/>
<path d="M34.6497 14.9305L26.7212 16.5526C26.8438 17.1622 26.9104 17.7929 26.9104 18.4375C26.9104 23.6332 22.6992 27.8479 17.5 27.8479C12.3008 27.8479 8.08959 23.6367 8.08959 18.4375C8.08959 13.2383 12.3008 9.02709 17.5 9.02709V0.9375C7.83734 0.9375 0 8.77484 0 18.4375C0 28.1002 7.83734 35.9375 17.5 35.9375C27.1627 35.9375 35 28.1002 35 18.4375C35 17.2358 34.8774 16.0621 34.6461 14.927L34.6497 14.9305Z" fill="#828282"/>
</svg>
