<svg width="33" height="37" viewBox="0 0 33 37" fill="none" xmlns="http://www.w3.org/2000/svg">
<path d="M22.6253 0.9375H21.18C20.4359 0.9375 19.724 1.21584 19.2017 1.71483L18.0748 2.78407C17.6384 3.19819 16.93 3.19819 16.4936 2.78407L15.3667 1.71483C14.8408 1.21584 14.1289 0.9375 13.3884 0.9375H9.37095C8.2691 0.9375 7.61801 1.95922 8.24406 2.70939L10.5193 5.44531C10.7733 5.75081 11.1954 5.9375 11.6462 5.9375H20.393C20.8473 5.9375 21.273 5.75081 21.527 5.43852L23.7629 2.70261C24.3782 1.95244 23.7236 0.9375 22.6289 0.9375L22.6253 0.9375Z" fill="#AFAFAF"/>
<path d="M33 26.1498C33 37.5098 25.6134 36.9325 16.5 36.9325C7.38665 36.9325 0 37.5135 0 26.1498C0 14.7861 7.38665 6.9375 16.5 6.9375C25.6134 6.9375 33 14.7898 33 26.1498Z" fill="#AFAFAF"/>
<path d="M17 33.9375C23.0751 33.9375 28 29.0126 28 22.9375C28 16.8624 23.0751 11.9375 17 11.9375C10.9249 11.9375 6 16.8624 6 22.9375C6 29.0126 10.9249 33.9375 17 33.9375Z" fill="#D8D8D8"/>
<path d="M21.9041 5.9375H11.0959C10.4907 5.9375 10 6.48812 10 7.16734V7.70766C10 8.38688 10.4907 8.9375 11.0959 8.9375H21.9041C22.5093 8.9375 23 8.38688 23 7.70766V7.16734C23 6.48812 22.5093 5.9375 21.9041 5.9375Z" fill="#828282"/>
<path d="M23.6954 21.6113H22.4198L23.2279 18.5787C23.4127 17.8861 23.0032 17.1753 22.3147 16.9931L22.2712 16.9821C21.5826 16.7962 20.876 17.2081 20.6948 17.9007L19.2343 23.3901L17.2557 17.9189C17.0564 17.3721 16.5309 17.0477 15.9837 17.0733C15.4329 17.0477 14.9074 17.3721 14.7117 17.9189L12.733 23.3974L11.2762 17.9226C11.0914 17.23 10.3847 16.8217 9.69982 17.004L9.65633 17.0149C8.96779 17.2008 8.56191 17.9116 8.7431 18.6005L9.54399 21.6077H8.30823C7.58345 21.6077 7 22.1982 7 22.9235C7 23.6489 7.58707 24.2394 8.30823 24.2394H10.2434L11.2364 27.9756C11.4212 28.6681 12.1278 29.0764 12.8128 28.8941L12.8563 28.8832C13.1208 28.8103 13.3419 28.6608 13.5049 28.4676C13.6644 28.3291 13.7948 28.1505 13.8709 27.9391L15.9801 22.1034L18.0892 27.9391C18.187 28.2052 18.3646 28.4203 18.582 28.5697C18.7306 28.7046 18.9046 28.8103 19.1075 28.865L19.151 28.8759C19.8395 29.0618 20.5462 28.6499 20.7274 27.9573L21.7167 24.243H23.6918C24.4165 24.243 25 23.6525 25 22.9272C25 22.2018 24.4129 21.6113 23.6918 21.6113H23.6954Z" fill="#828282"/>
</svg>
