<svg xmlns="http://www.w3.org/2000/svg" version="1.1" xmlns:xlink="http://www.w3.org/1999/xlink" xmlns:svgjs="http://svgjs.dev/svgjs" width="124" height="125"><svg id="SvgjsSvg1019" xmlns="http://www.w3.org/2000/svg" version="1.1" viewBox="0 0 124 125">
  <!-- Generator: Adobe Illustrator 29.3.1, SVG Export Plug-In . SVG Version: 2.1.0 Build 151)  -->
  <path d="M11.5,11.7v9.2h55.6C34.3,36.3,11.5,69.9,11.5,108.8v4.6h9.1v-4.6c0-47,36.7-85.5,82.8-87.9v11.6c-39.7,2.4-71.3,35.6-71.3,76.3v4.6h9.1v-4.6c0-35.5,27.5-64.7,62.2-67v11.6c-28.3,2.3-50.7,26.3-50.7,55.5v4.6h9.1v-4.6c0-24,18.3-43.9,41.6-46.2v11.6c-17,2.2-30.1,16.9-30.1,34.6v4.6h9.1v-4.6c0-12.6,9.1-23.1,21-25.3v29.9h9.1V11.7H11.5Z"></path>
</svg><style>@media (prefers-color-scheme: light) { :root { filter: none; } }
@media (prefers-color-scheme: dark) { :root { filter: none; } }
</style></svg>