<svg width="49" height="35" viewBox="0 0 49 35" fill="none" xmlns="http://www.w3.org/2000/svg">
<g clip-path="url(#clip0_280_49568)">
<path d="M11.5 18.9375C15.0899 18.9375 18 16.2512 18 12.9375C18 9.62379 15.0899 6.9375 11.5 6.9375C7.91015 6.9375 5 9.62379 5 12.9375C5 16.2512 7.91015 18.9375 11.5 18.9375Z" fill="#828282"/>
<path d="M10.9966 20.9375C6.10194 20.9375 1.91798 24.6224 0.218433 29.8296C-0.584988 32.2841 0.929151 34.9437 3.10457 34.9375H18.9011C21.0765 34.9313 22.5844 32.2655 21.781 29.8172C20.0753 24.6099 15.8913 20.9313 10.9966 20.9375Z" fill="#828282"/>
<path d="M38.5 18.9375C42.0899 18.9375 45 16.2512 45 12.9375C45 9.62379 42.0899 6.9375 38.5 6.9375C34.9101 6.9375 32 9.62379 32 12.9375C32 16.2512 34.9101 18.9375 38.5 18.9375Z" fill="#828282"/>
<path d="M37.9966 20.9375C33.1019 20.9375 28.918 24.6224 27.2184 29.8296C26.415 32.2841 27.9291 34.9437 30.1046 34.9375H45.9011C48.0765 34.9313 49.5844 32.2655 48.781 29.8172C47.0753 24.6099 42.8913 20.9313 37.9966 20.9375Z" fill="#828282"/>
<path d="M24.5 12.9375C28.0899 12.9375 31 10.2512 31 6.9375C31 3.62379 28.0899 0.9375 24.5 0.9375C20.9102 0.9375 18 3.62379 18 6.9375C18 10.2512 20.9102 12.9375 24.5 12.9375Z" fill="#828282"/>
<path d="M32 20.6508C30.0892 17.7701 27.2112 15.9375 23.9912 15.9375C20.777 15.9375 17.9108 17.7701 16 20.6325C19.0372 22.1218 21.4965 25.0577 22.7704 28.9375H25.265C26.533 25.07 28.9805 22.1402 32 20.6508Z" fill="#828282"/>
</g>
<defs>
<clipPath id="clip0_280_49568">
<rect width="49" height="34" fill="white" transform="translate(0 0.9375)"/>
</clipPath>
</defs>
</svg>
