<svg width="108" height="34" viewBox="0 0 108 34" fill="none" xmlns="http://www.w3.org/2000/svg">
<path fill-rule="evenodd" clip-rule="evenodd" d="M92.893 7.88994C99.7511 10.5778 108.142 12.3897 107.998 17.7563C107.778 26.0505 69.7897 35.2668 41.1119 33.856C22.6159 32.9431 1.39006 27.9408 0.106548 20.8729C-2.14439 8.43858 31.7154 -1.07737 59.445 0.0982902C73.1231 0.679206 84.9716 4.78711 92.893 7.88533V7.88994ZM99.368 11.523C105.412 16.8434 96.4945 23.5101 93.9753 26.0643C105.019 24.3907 112.701 14.8056 99.368 11.523ZM95.0481 9.96464C105.182 17.8577 88.0942 24.9947 83.1804 28.66C95.4025 26.885 105.786 16.2625 95.0481 9.96464ZM30.317 3.21495C8.33443 5.19283 -10.4872 23.7914 16.2941 29.6973C22.7979 28.4295 29.1101 33.69 37.8744 31.2557C27.6446 30.4627 18.478 26.4009 11.9838 25.5433C13.6696 26.4885 18.727 28.4986 17.3765 29.1764C-6.51216 21.3109 14.752 6.26706 30.317 3.21495ZM9.81909 15.677C4.05287 23.7499 20.6044 28.0652 30.317 28.66C22.0125 25.0408 10.5279 22.9523 9.81909 15.677ZM21.6868 8.40631C12.185 10.5824 7.87467 22.0624 19.5316 22.9476C16.0068 21.8872 18.9665 18.1758 15.2118 16.198C13.6601 18.5308 18.8803 20.2782 16.2941 21.3893C9.44553 16.2763 20.1926 10.8867 21.6868 8.40631ZM50.8148 2.1776C63.2381 2.18682 51.9068 1.26012 45.4222 1.65662C36.6866 2.19143 21.6485 6.04576 21.6868 7.88994C29.3495 5.0038 38.995 3.06742 50.8148 2.1776ZM63.7649 1.14025C62.6155 1.1172 61.0255 1.3846 62.6825 1.66123C75.2016 3.38554 77.6153 3.09047 63.7649 1.14025ZM62.6825 3.21495C61.4086 2.61559 58.8703 2.62481 56.2075 2.69397C54.6845 4.35373 62.6634 4.00795 62.6825 3.21495ZM24.9243 18.2773C31.2078 10.398 48.7651 7.94065 67.0024 5.81524C43.0946 5.04069 26.1791 9.52665 24.9243 18.2773ZM24.9243 20.8729C26.3802 25.3174 44.2823 27.4336 55.1347 25.027C52.0313 25.133 49.6559 24.8933 48.6597 23.9896C67.9028 26.3963 82.9697 20.4073 90.7378 14.1233C81.6287 -0.150673 21.3515 10.0061 24.9243 20.8729ZM33.5545 26.0643C42.3379 28.9597 59.1098 26.613 68.0752 27.1017C66.8013 27.1846 65.0101 27.0141 64.8377 27.6226C69.5599 27.2999 74.1288 26.9034 76.7054 25.5433C65.4028 26.1012 45.8149 26.6913 33.5545 26.0643ZM64.8377 25.027C78.8797 25.5203 95.0577 21.6198 89.6554 16.198C84.5501 20.6655 74.0713 22.5465 64.8377 25.027ZM90.7282 12.5649C89.8758 9.84938 84.531 6.56213 78.8605 7.88994C84.0904 8.83508 86.8011 10.9882 90.7282 12.5649ZM76.7054 5.81063C68.9181 7.31825 66.3128 4.07249 76.7054 5.81063ZM23.8419 23.9896C12.0892 15.7876 28.9281 9.25002 40.0199 5.81524C21.6868 6.18869 10.2405 17.3091 23.8419 23.9896ZM93.9658 18.2773C94.0807 16.1472 94.1477 14.0357 91.8106 13.0859C91.8872 15.1283 92.3278 16.991 93.9658 18.2773ZM51.8972 29.7019C64.3205 31.477 80.1057 27.7425 83.1804 25.027C75.8146 28.056 63.6117 28.7614 51.8972 29.7019ZM36.792 29.181C40.8533 28.9827 44.9528 31.4493 48.6597 29.7019C42.5582 29.2225 35.9683 28.3188 32.4721 29.181C34.2824 30.0062 41.61 30.8407 36.792 29.181ZM46.495 32.2976C52.3091 32.1547 59.8282 32.8324 62.6825 31.2603C57.5006 31.7075 48.2957 30.2229 46.495 32.2976Z" fill="#0047B1" fill-opacity="0.4"/>
</svg>
