<svg width="77" height="29" viewBox="0 0 77 29" fill="none" xmlns="http://www.w3.org/2000/svg">
<path d="M76.1114 14.8281C76.161 11.9604 76.1745 9.52277 75.3209 7.89285C76.3712 5.35853 76.4308 2.8442 73.6587 0.864295C72.3367 -0.0801044 71.289 -0.182322 70.4516 0.229881C69.6332 0.182105 68.9564 0.850962 68.3807 1.87091C66.954 1.11206 65.2151 1.12539 63.5024 2.30867C63.2922 2.45422 63.0973 2.64977 62.9132 2.88531C62.5576 2.28089 62.0442 1.71314 61.3394 1.1965C59.9119 0.149884 58.8028 0.112109 57.9321 0.654305C57.1028 0.698747 56.4404 1.41538 55.8873 2.45533C54.0663 1.92424 52.0702 2.06646 50.935 2.92975C50.8204 3.01641 50.7112 3.11974 50.6057 3.23529C50.2492 2.6231 49.7322 2.04868 49.0193 1.52649C47.5917 0.479869 46.4827 0.442093 45.6119 0.984289C44.7826 1.02873 44.1203 1.74536 43.5671 2.78531C41.7461 2.25423 39.7501 2.39644 38.6149 3.25974C38.5003 3.3464 38.3911 3.44973 38.2855 3.56528C37.9291 2.95308 37.412 2.37867 36.6991 1.85647C35.2716 0.810964 34.1625 0.772077 33.2926 1.31427C32.4634 1.35872 31.801 2.07535 31.2479 3.1153C29.4269 2.58421 27.4308 2.72643 26.2956 3.58972C26.181 3.67638 26.0718 3.78082 25.9662 3.89637C25.6098 3.28418 25.0927 2.70976 24.3808 2.18868C22.9541 1.14317 21.8451 1.10539 20.9752 1.64648C20.145 1.69092 19.4818 2.40755 18.9286 3.44973C17.1067 2.91975 15.1115 3.0653 13.9764 3.92859C13.1218 4.57967 12.5497 6.00072 11.9586 7.45176C11.7827 7.59842 11.6311 7.76952 11.5093 7.96729C11.4957 7.9884 11.4813 8.00951 11.4668 8.03062C10.9516 7.42843 10.3569 6.92067 9.80286 6.56402C9.29934 6.03849 8.76513 5.80184 8.23724 5.99738C7.77071 6.1696 7.51714 6.50847 7.42781 6.95734C6.23576 5.10965 4.4653 3.1353 3.34906 3.95748C3.21641 4.16747 3.1758 4.42857 3.20378 4.72522C2.69303 4.50634 2.27343 4.49968 2.00723 4.77411C1.78795 5.47407 2.3781 6.85734 3.34184 8.40838C2.05595 8.24728 1.46309 9.14946 3.5169 10.9405C4.16932 11.576 4.63314 12.0182 4.95349 12.3149C5.0717 12.4582 5.21247 12.6248 5.37851 12.8204C5.38753 12.8815 5.40558 12.9559 5.43084 13.0293C5.39385 13.077 5.35685 13.127 5.31805 13.177C5.17367 13.0926 5.02658 13.0159 4.87769 12.9471C4.87769 12.8815 4.87769 12.8848 4.87769 12.9471C4.84159 12.9304 4.8055 12.9148 4.7685 12.8993C3.04315 11.0871 1.0119 9.60054 0.0598949 10.5683C-0.30647 11.6004 1.06785 13.1737 2.54775 14.497C1.26818 14.4948 0.604028 15.2703 2.31133 16.5513C2.27884 16.5291 2.28877 16.5369 2.38532 16.6069C2.61362 16.7691 2.84192 16.9324 3.07023 17.0946C3.00977 17.3791 2.97728 17.6557 2.97096 17.9224C2.85817 17.9901 2.74357 18.059 2.62626 18.1335C1.88631 18.5223 1.49738 19.8012 1.70944 21.1455C1.22757 22.8155 1.68147 24.5909 4.38138 25.8942C4.59254 25.9964 4.80099 26.0831 5.00853 26.1586C5.61132 28.9663 7.57309 29.7985 11.7709 28.043C11.8964 28.0263 12.0236 28.0063 12.1518 27.9797C13.9186 27.6186 15.4545 26.6064 16.8134 25.2354C17.0237 25.3231 17.2502 25.4031 17.4938 25.4753C17.6942 26.8553 18.426 27.9641 20.0385 28.5641C23.8664 29.9873 26.3768 27.7375 28.4135 24.5376C28.7997 24.7754 29.2626 24.9798 29.8131 25.1442C30.0134 26.5242 30.7452 27.633 32.3578 28.233C36.1848 29.6563 38.6961 27.4064 40.7327 24.2076C41.119 24.4454 41.5819 24.6498 42.1314 24.8143C42.3318 26.1942 43.0636 27.303 44.6761 27.903C48.504 29.3263 51.0153 27.0764 53.0511 23.8765C53.4373 24.1143 53.9002 24.3187 54.4507 24.4832C54.651 25.8631 55.3828 26.9719 56.9954 27.5719C60.8097 28.9896 63.3174 26.7597 65.3496 23.5788C65.7105 23.8076 66.1004 23.9687 66.4902 24.0687C66.5615 24.7687 66.751 25.4042 67.093 25.9398C68.0829 27.4864 71.0454 27.8808 72.1833 26.572C75.0366 26.9975 75.4499 25.5787 74.9581 23.7632C76.836 23.4121 76.8973 22.1022 76.41 20.3767C77.4478 19.2568 76.9686 16.8869 76.1095 14.8292L76.1114 14.8281ZM24.0352 3.88859C24.0649 3.85415 24.0938 3.82082 24.1236 3.7886C24.092 3.82415 24.0622 3.85748 24.0352 3.88859Z" fill="#7795C0" fill-opacity="0.5"/>
</svg>
