<svg width="79" height="27" viewBox="0 0 79 27" fill="none" xmlns="http://www.w3.org/2000/svg">
<path d="M78.0883 13.8054C78.1392 11.1356 78.1531 8.86603 77.2773 7.34851C78.3549 4.98897 78.416 2.64805 75.5719 0.804688C74.2156 -0.07458 73.1407 -0.169748 72.2815 0.214027C71.4418 0.169546 70.7475 0.792275 70.1568 1.74188C68.6931 1.03537 66.909 1.04778 65.1518 2.14945C64.9361 2.28496 64.7362 2.46702 64.5473 2.68632C64.1825 2.12359 63.6557 1.595 62.9327 1.11398C61.468 0.139548 60.3302 0.104377 59.4368 0.60918C58.586 0.650558 57.9064 1.31777 57.3389 2.286C55.4706 1.79154 53.4227 1.92395 52.258 2.7277C52.1404 2.80839 52.0284 2.90459 51.9201 3.01217C51.5544 2.4422 51.0239 1.90739 50.2925 1.42121C48.8279 0.446774 47.69 0.411604 46.7966 0.916407C45.9458 0.957784 45.2663 1.62499 44.6987 2.59322C42.8304 2.09876 40.7825 2.23117 39.6179 3.03493C39.5003 3.11561 39.3882 3.21181 39.2799 3.3194C38.9142 2.74942 38.3837 2.21462 37.6523 1.72844C36.1877 0.755035 35.0499 0.71883 34.1574 1.22363C33.3066 1.26501 32.627 1.93222 32.0595 2.90045C30.1912 2.40599 28.1433 2.5384 26.9786 3.34215C26.861 3.42284 26.749 3.52008 26.6407 3.62766C26.275 3.05768 25.7445 2.52288 25.014 2.03773C23.5503 1.06433 22.4125 1.02916 21.52 1.53293C20.6683 1.57431 19.9878 2.24152 19.4203 3.21181C17.551 2.71839 15.5041 2.8539 14.3394 3.65766C13.4626 4.26383 12.8757 5.58687 12.2693 6.93784C12.0887 7.07439 11.9332 7.23369 11.8082 7.41782C11.7943 7.43748 11.7795 7.45713 11.7647 7.47678C11.236 6.91612 10.6259 6.44338 10.0575 6.11133C9.54088 5.62204 8.99279 5.40171 8.45119 5.58377C7.97255 5.74411 7.71239 6.05961 7.62074 6.47752C6.39773 4.75726 4.58128 2.91907 3.43605 3.68455C3.29995 3.88006 3.25829 4.12315 3.28699 4.39934C2.76298 4.19556 2.33248 4.18935 2.05936 4.44486C1.83439 5.09655 2.43987 6.38442 3.42864 7.82849C2.10935 7.6785 1.50109 8.51846 3.60825 10.186C4.27762 10.7777 4.75348 11.1894 5.08215 11.4656C5.20343 11.599 5.34786 11.7542 5.51821 11.9362C5.52747 11.9931 5.54598 12.0624 5.57191 12.1307C5.53395 12.1752 5.49599 12.2217 5.45618 12.2683C5.30805 12.1897 5.15714 12.1183 5.00438 12.0542C5.00438 11.9931 5.00438 11.9962 5.00438 12.0542C4.96735 12.0386 4.93032 12.0242 4.89236 12.0097C3.1222 10.3225 1.03819 8.93844 0.0614506 9.83943C-0.314431 10.8004 1.09559 12.2652 2.61392 13.4972C1.30112 13.4951 0.619718 14.2172 2.37136 15.4099C2.33803 15.3892 2.34822 15.3964 2.44728 15.4616C2.68151 15.6126 2.91574 15.7647 3.14997 15.9157C3.08794 16.1805 3.05461 16.4381 3.04813 16.6863C2.9324 16.7494 2.81483 16.8136 2.69447 16.8829C1.9353 17.2449 1.53628 18.4356 1.75384 19.6872C1.25946 21.242 1.72514 22.895 4.49518 24.1084C4.71182 24.2036 4.92569 24.2843 5.13862 24.3546C5.75707 26.9686 7.76979 27.7434 12.0767 26.109C12.2054 26.0935 12.3359 26.0749 12.4674 26.05C14.2801 25.7138 15.8559 24.7715 17.2501 23.495C17.4659 23.5767 17.6982 23.6512 17.9482 23.7184C18.1537 25.0032 18.9046 26.0356 20.559 26.5941C24.4863 27.9193 27.0619 25.8245 29.1515 22.8454C29.5478 23.0667 30.0227 23.2571 30.5874 23.4102C30.793 24.6949 31.5438 25.7273 33.1982 26.2859C37.1246 27.611 39.7012 25.5163 41.7907 22.5381C42.187 22.7595 42.6619 22.9498 43.2258 23.1029C43.4313 24.3877 44.1821 25.4201 45.8366 25.9787C49.7639 27.3038 52.3404 25.209 54.429 22.2299C54.8253 22.4512 55.3002 22.6416 55.865 22.7947C56.0705 24.0794 56.8214 25.1118 58.4758 25.6704C62.3892 26.9903 64.9621 24.9142 67.047 21.9526C67.4173 22.1657 67.8173 22.3157 68.2172 22.4088C68.2904 23.0605 68.4848 23.6522 68.8357 24.1508C69.8513 25.5907 72.8907 25.958 74.0582 24.7394C76.9856 25.1356 77.4096 23.8146 76.9051 22.1244C78.8317 21.7975 78.8947 20.5779 78.3947 18.9714C79.4594 17.9287 78.9678 15.7223 78.0864 13.8065L78.0883 13.8054ZM24.6594 3.62042C24.69 3.58835 24.7196 3.55732 24.7502 3.52732C24.7178 3.56042 24.6872 3.59145 24.6594 3.62042Z" fill="#875EFF" fill-opacity="0.4"/>
</svg>
