<svg width="81" height="22" viewBox="0 0 81 22" fill="none" xmlns="http://www.w3.org/2000/svg">
<path fill-rule="evenodd" clip-rule="evenodd" d="M69.6697 5.10526C74.8134 6.84448 81.1064 8.01688 80.9986 11.4894C80.8334 16.8562 52.3423 22.8197 30.8339 21.9068C16.9619 21.3161 1.04254 18.0793 0.0799109 13.506C-1.60829 5.46026 23.7866 -0.697124 44.5838 0.0635996C54.8423 0.439486 63.7287 3.09754 69.6697 5.10227V5.10526ZM74.526 7.45604C79.059 10.8987 72.3708 15.2124 70.4815 16.8651C78.7645 15.7822 84.5259 9.5801 74.526 7.45604ZM71.2861 6.44771C78.8866 11.555 66.0706 16.173 62.3853 18.5447C71.5519 17.3962 79.3392 10.5228 71.2861 6.44771ZM22.7377 2.08026C6.25083 3.36007 -7.86541 15.3944 12.2206 19.2159C17.0984 18.3955 21.8326 21.7994 28.4058 20.2243C20.7334 19.7111 13.8585 17.0829 8.98787 16.528C10.2522 17.1396 14.0453 18.4403 13.0324 18.8788C-4.88412 13.7894 11.064 4.05516 22.7377 2.08026ZM7.36432 10.1439C3.03965 15.3676 15.4533 18.1599 22.7377 18.5447C16.5093 16.2029 7.89592 14.8515 7.36432 10.1439ZM16.2651 5.43938C9.13873 6.84746 5.906 14.2757 14.6487 14.8485C12.0051 14.1623 14.2249 11.7608 11.4088 10.481C10.245 11.9905 14.1602 13.1212 12.2206 13.8401C7.08415 10.5317 15.1444 7.04435 16.2651 5.43938ZM38.1111 1.40904C47.4286 1.415 38.9301 0.815373 34.0666 1.07193C27.515 1.41799 16.2364 3.91196 16.2651 5.10526C22.0122 3.23775 29.2463 1.9848 38.1111 1.40904ZM47.8237 0.737809C46.9616 0.722893 45.7691 0.89592 47.0119 1.07491C56.4012 2.19064 58.2115 1.99971 47.8237 0.737809ZM47.0119 2.08026C46.0565 1.69244 44.1527 1.69841 42.1556 1.74316C41.0134 2.81712 46.9975 2.59338 47.0119 2.08026ZM18.6932 11.8265C23.4058 6.72813 36.5738 5.13807 50.2518 3.7628C32.321 3.26162 19.6343 6.1643 18.6932 11.8265ZM18.6932 13.506C19.7852 16.3819 33.2118 17.7512 41.351 16.1939C39.0235 16.2625 37.2419 16.1074 36.4948 15.5227C50.9271 17.0799 62.2273 13.2047 68.0534 9.13858C61.2215 -0.0974946 16.0137 6.47456 18.6932 13.506ZM25.1659 16.8651C31.7534 18.7386 44.3323 17.2201 51.0564 17.5364C50.101 17.5901 48.7576 17.4797 48.6283 17.8735C52.1699 17.6646 55.5966 17.4081 57.529 16.528C49.0521 16.889 34.3612 17.2709 25.1659 16.8651ZM48.6283 16.1939C59.1598 16.5131 71.2933 13.9893 67.2416 10.481C63.4126 13.3718 55.5535 14.5889 48.6283 16.1939ZM68.0462 8.13025C67.4068 6.37313 63.3982 4.24609 59.1454 5.10526C63.0678 5.71682 65.1008 7.10998 68.0462 8.13025ZM57.529 3.75982C49.7346 2.63514 51.6886 4.73533 57.529 3.75982V3.75982ZM17.8815 15.5227C9.06689 10.2155 21.6961 5.98531 30.015 3.7628C16.2651 4.00444 7.68041 11.2 17.8815 15.5227ZM70.4743 11.8265C70.5605 10.4482 70.6108 9.0819 68.8579 8.46735C68.9154 9.78892 69.2459 10.9941 70.4743 11.8265ZM38.9229 19.2189C48.2403 20.3675 60.0793 17.951 62.3853 16.1939C56.8609 18.1539 47.7087 18.6103 38.9229 19.2189ZM27.594 18.8818C30.6399 18.7535 33.7146 20.3496 36.4948 19.2189C31.9187 18.9087 26.9762 18.3239 24.3541 18.8818C25.7118 19.4158 31.2075 19.9558 27.594 18.8818ZM34.8712 20.8985C39.2318 20.806 44.8711 21.2445 47.0119 20.2272C43.1255 20.5166 36.2218 19.556 34.8712 20.8985Z" fill="#43BB02" fill-opacity="0.3"/>
</svg>
