<svg width="171" height="39" viewBox="0 0 171 39" fill="none" xmlns="http://www.w3.org/2000/svg">
<path d="M75.8612 2.32769C94.3871 2.56312 115.046 3.47478 135.33 6.1847C141.63 7.02623 147.823 8.02804 153.668 9.69106C156.308 10.4213 158.807 11.3008 161.129 12.3158C162.816 13.0943 164.235 14.0399 165.314 15.1059C167.866 17.6104 167.152 20.1801 163.253 22.0435C160.916 23.1362 158.351 24.0648 155.614 24.8085C147.707 26.9221 139.412 28.5431 130.877 29.6423C123.817 30.5284 116.633 31.0648 109.406 31.2452C108.554 31.2254 107.702 31.2898 106.889 31.4355C106.301 31.5858 105.506 32.0516 105.578 32.3221C105.681 32.5344 105.86 32.7326 106.104 32.9049C106.348 33.0771 106.651 33.2197 106.997 33.3239C107.72 33.452 108.485 33.4879 109.236 33.4291C120.98 33.4943 132.322 32.1769 143.361 30.048C148.742 28.993 154.015 27.7723 159.157 26.3914C161.889 25.6372 164.402 24.6542 166.608 23.4761C171.239 21.0417 172.185 17.7557 169.553 14.5198C168.172 12.8662 166.11 11.4206 163.538 10.3022C159.023 8.26347 153.829 6.96111 148.421 5.88916C137.98 3.81039 127.156 2.62825 116.215 1.75666C103.204 0.720436 90.0898 0.141582 76.9499 0.0235082C61.1993 -0.116746 45.5469 0.334073 30.1621 2.37277C24.0211 3.13787 18.1233 4.42324 12.6714 6.1847C9.07199 7.29629 5.9141 8.80809 3.39058 10.6278C-0.625159 13.6733 -1.02674 16.9092 1.93598 20.2753C3.6679 22.1264 6.0085 23.7767 8.83414 25.1391C16.1249 28.8709 24.7186 31.3704 33.8209 33.354C45.6897 35.9437 58.0581 37.3613 70.6586 38.2329C86.7535 39.2689 103.008 39.2555 119.097 38.1928C133.027 37.3262 146.761 35.8936 159.942 33.1035C161.628 32.7429 163.253 32.2971 164.895 31.8713C166.037 31.5708 166.777 31.1049 166.287 30.3686C165.921 29.8026 164.814 29.6322 163.342 30.0029C155.043 32.1168 146.217 33.1787 137.373 34.2206C127.019 35.3915 116.527 36.1399 105.979 36.4596C87.3391 37.1462 68.6211 36.2529 50.455 33.8098C40.6141 32.5396 31.1458 30.4887 22.3359 27.7188C17.7166 26.312 13.5043 24.5201 9.84254 22.4041C8.46799 21.5907 7.24778 20.6993 6.20159 19.7443C3.02469 16.7739 3.52445 13.8536 7.78113 11.3891C9.99398 10.1444 12.4693 9.0561 15.1522 8.14825C21.0598 6.10955 27.6456 5.04262 34.3921 4.26621C47.3495 2.75346 60.4408 2.31267 75.8612 2.32769Z" fill="#0047B1" fill-opacity="0.4"/>
</svg>
