<svg width="135" height="30" viewBox="0 0 135 30" fill="none" xmlns="http://www.w3.org/2000/svg">
<path d="M59.8904 28.2095C74.5162 28.0284 90.8257 27.3271 106.839 25.2425C111.813 24.5952 116.703 23.8246 121.317 22.5453C123.401 21.9836 125.374 21.3071 127.207 20.5263C128.539 19.9275 129.659 19.2 130.511 18.3801C132.526 16.4535 131.962 14.4769 128.884 13.0435C127.039 12.2029 125.014 11.4886 122.853 10.9165C116.611 9.29067 110.062 8.0438 103.324 7.19826C97.7505 6.51659 92.0785 6.104 86.3732 5.96525C85.7004 5.98046 85.0279 5.9309 84.3864 5.81883C83.9215 5.70324 83.2944 5.34489 83.3508 5.13682C83.4323 4.97355 83.5736 4.82105 83.7661 4.68857C83.9587 4.55609 84.1985 4.44641 84.471 4.36619C85.0421 4.2677 85.6462 4.24005 86.2393 4.28527C95.5107 4.23518 104.465 5.24856 113.18 6.88615C117.428 7.69768 121.591 8.6367 125.65 9.69895C127.807 10.2791 129.791 11.0353 131.533 11.9415C135.189 13.8141 135.936 16.3418 133.857 18.8309C132.767 20.1029 131.14 21.2149 129.109 22.0753C125.544 23.6435 121.444 24.6453 117.175 25.4699C108.932 27.0689 100.386 27.9783 91.7486 28.6487C81.4766 29.4458 71.1235 29.8911 60.7499 29.9819C48.3153 30.0898 35.9581 29.743 23.8122 28.1748C18.964 27.5863 14.3078 26.5975 10.0037 25.2425C7.1621 24.3875 4.66902 23.2245 2.67677 21.8248C-0.493546 19.4821 -0.810581 16.993 1.52841 14.4036C2.89571 12.9797 4.74356 11.7102 6.97432 10.6622C12.7302 7.79164 19.5147 5.86892 26.7007 4.34308C36.0708 2.351 45.8354 1.26056 55.7831 0.590108C68.4896 -0.206881 81.3221 -0.196537 94.0242 0.620934C105.022 1.28753 115.864 2.38953 126.27 4.53573C127.601 4.81316 128.884 5.15609 130.18 5.4836C131.082 5.71479 131.666 6.07313 131.279 6.63955C130.99 7.07495 130.117 7.20596 128.954 6.92083C122.402 5.2948 115.434 4.47793 108.453 3.67648C100.278 2.77573 91.9946 2.20011 83.6678 1.95413C68.9519 1.426 54.1746 2.11314 39.8329 3.99244C32.0637 4.96951 24.5888 6.54718 17.6336 8.67787C13.9868 9.75997 10.6613 11.1384 7.77042 12.7661C6.68526 13.3918 5.72193 14.0774 4.89599 14.8121C2.38792 17.097 2.78246 19.3434 6.14299 21.2391C7.88998 22.1966 9.8442 23.0338 11.9623 23.7321C16.6262 25.3003 21.8255 26.1211 27.1516 26.7183C37.3812 27.882 47.7164 28.221 59.8904 28.2095Z" fill="#875EFF" fill-opacity="0.4"/>
</svg>
