<svg width="90" height="26" viewBox="0 0 90 26" fill="none" xmlns="http://www.w3.org/2000/svg">
<path d="M39.927 24.4482C49.6774 24.2913 60.5505 23.6835 71.2262 21.8769C74.5421 21.3158 77.8017 20.648 80.8781 19.5393C82.2672 19.0525 83.5828 18.4661 84.8046 17.7895C85.6927 17.2705 86.4393 16.64 87.0073 15.9294C88.3506 14.2597 87.9749 12.5466 85.9224 11.3044C84.6928 10.5758 83.3426 9.95681 81.902 9.461C77.7407 8.05191 73.3749 6.97129 68.8825 6.23849C65.167 5.64771 61.3857 5.29013 57.5821 5.16988C57.1336 5.18306 56.6853 5.14011 56.2576 5.04299C55.9476 4.94281 55.5296 4.63224 55.5672 4.45191C55.6215 4.31041 55.7157 4.17824 55.8441 4.06343C55.9725 3.94861 56.1323 3.85356 56.314 3.78403C56.6947 3.69867 57.0975 3.67471 57.4929 3.7139C63.6738 3.67049 69.6434 4.54875 75.4533 5.968C78.2853 6.67132 81.0606 7.48514 83.7666 8.40575C85.2048 8.90856 86.5272 9.56389 87.6884 10.3493C90.126 11.9722 90.6239 14.1629 89.2383 16.3201C88.5115 17.4225 87.4264 18.3863 86.0727 19.1319C83.6961 20.491 80.9626 21.3593 78.1164 22.0739C72.6211 23.4597 66.924 24.2478 61.1657 24.8289C54.3177 25.5197 47.4157 25.9056 40.5 25.9843C32.2102 26.0778 23.972 25.7773 15.8748 24.4182C12.6427 23.9081 9.53856 23.0512 6.66915 21.8769C4.77473 21.1358 3.11268 20.1279 1.78451 18.9148C-0.329031 16.8845 -0.540388 14.7272 1.01894 12.4832C1.93047 11.2491 3.16237 10.1489 4.64955 9.2406C8.4868 6.75275 13.0098 5.0864 17.8005 3.764C24.0472 2.03753 30.5569 1.09248 37.1887 0.511427C45.6597 -0.179297 54.2147 -0.170332 62.6828 0.538143C70.0145 1.11586 77.2428 2.07093 84.1799 3.93097C85.0676 4.1714 85.9224 4.46861 86.7866 4.75246C87.3878 4.95282 87.7776 5.26338 87.5193 5.75427C87.3267 6.13163 86.7443 6.24517 85.9694 5.99805C81.6014 4.58883 76.9563 3.88087 72.3018 3.18628C66.852 2.40564 61.3298 1.90676 55.7785 1.69358C45.968 1.23587 36.1164 1.83139 26.5553 3.46011C21.3758 4.30691 16.3925 5.67422 11.7558 7.52082C9.32455 8.45864 7.1075 9.65327 5.18028 11.0639C4.45684 11.6062 3.81462 12.2004 3.26399 12.8371C1.59194 14.8174 1.85497 16.7643 4.09533 18.4072C5.25999 19.237 6.5628 19.9626 7.97485 20.5678C11.0841 21.927 14.5503 22.6383 18.1011 23.1559C24.9208 24.1644 31.8109 24.4582 39.927 24.4482Z" fill="#43BB02" fill-opacity="0.3"/>
</svg>
