<svg width="81" height="23" viewBox="0 0 81 23" fill="none" xmlns="http://www.w3.org/2000/svg">
<g clip-path="url(#clip0_76_18630)">
<path fill-rule="evenodd" clip-rule="evenodd" d="M69.6717 6.04314C74.8154 7.7825 81.1086 8.955 81.0009 12.4277C80.8357 17.795 52.3438 23.7589 30.8348 22.846C16.9624 22.2552 1.04257 19.0182 0.0799131 14.4446C-1.60834 6.39818 23.7872 0.240323 44.585 1.0011C54.8438 1.37702 63.7305 4.03528 69.6717 6.04016V6.04314ZM74.5281 8.39411C79.0612 11.837 72.3729 16.1511 70.4835 17.8039C78.7666 16.7209 84.5282 10.5183 74.5281 8.39411ZM71.2881 7.3857C78.8888 12.4934 66.0725 17.1118 62.387 19.4836C71.5539 18.335 79.3414 11.4611 71.2881 7.3857ZM22.7384 3.01792C6.251 4.29782 -7.86563 16.3331 12.2209 20.1549C17.0989 19.3344 21.8332 22.7386 28.4066 21.1633C20.734 20.6501 13.8589 18.0217 8.98812 17.4668C10.2525 18.0784 14.0457 19.3792 13.0327 19.8178C-4.88426 14.728 11.0643 4.99297 22.7384 3.01792ZM7.36452 11.0822C3.03974 16.3062 15.4537 19.0987 22.7384 19.4836C16.5098 17.1416 7.89614 15.7901 7.36452 11.0822ZM16.2655 6.37729C9.13898 7.78548 5.90617 15.2143 14.6491 15.7871C12.0054 15.1009 14.2253 12.6992 11.4091 11.4193C10.2453 12.929 14.1606 14.0597 12.2209 14.7787C7.08435 11.47 15.1448 7.98239 16.2655 6.37729ZM38.1122 2.34664C47.4299 2.35261 38.9312 1.75294 34.0676 2.00951C27.5157 2.35559 16.2368 4.84976 16.2655 6.04314C22.0128 4.1755 29.2471 2.92245 38.1122 2.34664ZM47.825 1.67537C46.9629 1.66045 45.7704 1.83349 47.0132 2.0125C56.4027 3.12831 58.2131 2.93737 47.825 1.67537ZM47.0132 3.01792C46.0577 2.63007 44.154 2.63604 42.1568 2.68079C41.0145 3.75483 46.9988 3.53107 47.0132 3.01792ZM18.6937 12.7649C23.4065 7.66614 36.5748 6.07596 50.2532 4.70059C32.3219 4.19937 19.6349 7.10227 18.6937 12.7649ZM18.6937 14.4446C19.7857 17.3206 33.2127 18.69 41.3522 17.1326C39.0246 17.2013 37.2429 17.0461 36.4958 16.4614C50.9285 18.0187 62.229 14.1432 68.0553 10.0768C61.2232 0.839998 16.0141 7.41255 18.6937 14.4446ZM25.1666 17.8039C31.7543 19.6775 44.3336 18.159 51.0578 18.4752C50.1023 18.5289 48.7589 18.4185 48.6296 18.8123C52.1714 18.6035 55.5981 18.3469 57.5306 17.4668C49.0535 17.8278 34.3621 18.2097 25.1666 17.8039ZM48.6296 17.1326C59.1614 17.4519 71.2952 14.9279 67.2435 11.4193C63.4144 14.3103 55.555 15.5275 48.6296 17.1326ZM68.0481 9.06837C67.4087 7.31111 63.4 5.18391 59.1471 6.04314C63.0695 6.65475 65.1026 8.04803 68.0481 9.06837ZM57.5306 4.69761C49.736 3.57284 51.69 5.6732 57.5306 4.69761V4.69761ZM17.882 16.4614C9.06714 11.1538 21.6967 6.92326 30.0158 4.70059C16.2655 4.94225 7.68062 12.1383 17.882 16.4614ZM70.4763 12.7649C70.5625 11.3865 70.6128 10.0201 68.8599 9.4055C68.9173 10.7272 69.2478 11.9325 70.4763 12.7649ZM38.924 20.1579C48.2417 21.3065 60.081 18.8899 62.387 17.1326C56.8625 19.0928 47.7101 19.5492 38.924 20.1579ZM27.5948 19.8207C30.6408 19.6925 33.7156 21.2886 36.4958 20.1579C31.9196 19.8476 26.9769 19.2628 24.3548 19.8207C25.7126 20.3548 31.2083 20.8948 27.5948 19.8207ZM34.8722 21.8376C39.2329 21.7451 44.8724 22.1836 47.0132 21.1663C43.1267 21.4557 36.2228 20.495 34.8722 21.8376Z" fill="#78AEFF" fill-opacity="0.5"/>
</g>
<defs>
<clipPath id="clip0_76_18630">
<rect width="81" height="22" fill="white" transform="translate(0 0.9375)"/>
</clipPath>
</defs>
</svg>
