<svg width="219" height="40" viewBox="0 0 219 40" fill="none" xmlns="http://www.w3.org/2000/svg">
<path d="M97.1556 2.88238C120.882 3.11781 147.339 4.02947 173.317 6.73939C181.386 7.58091 189.317 8.58273 196.803 10.2457C200.183 10.976 203.385 11.8555 206.358 12.8705C208.519 13.6489 210.336 14.5946 211.718 15.6606C214.987 18.1651 214.072 20.7348 209.078 22.5982C206.086 23.6909 202.8 24.6195 199.295 25.3632C189.169 27.4768 178.546 29.0978 167.614 30.197C158.573 31.0831 149.372 31.6195 140.116 31.7999C139.025 31.7801 137.934 31.8445 136.894 31.9902C136.139 32.1405 135.122 32.6063 135.214 32.8768C135.346 33.0891 135.575 33.2873 135.887 33.4595C136.2 33.6318 136.589 33.7744 137.031 33.8786C137.957 34.0067 138.937 34.0426 139.899 33.9838C154.94 34.0489 169.466 32.7316 183.603 30.6027C190.494 29.5477 197.248 28.327 203.832 26.9461C207.332 26.1919 210.549 25.2089 213.375 24.0308C219.307 21.5963 220.518 18.3104 217.147 15.0745C215.378 13.4209 212.738 11.9753 209.444 10.8569C203.661 8.81816 197.009 7.5158 190.083 6.44385C176.711 4.36508 162.848 3.18293 148.837 2.31135C132.173 1.27512 115.378 0.696269 98.5499 0.578196C78.3781 0.437941 58.332 0.888761 38.6287 2.92746C30.7638 3.69256 23.2105 4.97793 16.2283 6.73939C11.6185 7.85098 7.57419 9.36278 4.34232 11.1824C-0.800642 14.228 -1.31494 17.4638 2.47942 20.83C4.69749 22.6811 7.6951 24.3314 11.3139 25.6938C20.6512 29.4256 31.6572 31.9251 43.3145 33.9087C58.5148 36.4984 74.3552 37.916 90.4926 38.7875C111.105 39.8236 131.922 39.8102 152.528 38.7475C170.368 37.8809 187.957 36.4483 204.838 33.6582C206.998 33.2976 209.078 32.8518 211.181 32.426C212.644 32.1255 213.592 31.6596 212.964 30.9233C212.495 30.3572 211.078 30.1869 209.192 30.5576C198.563 32.6714 187.26 33.7334 175.934 34.7753C162.673 35.9462 149.236 36.6945 135.728 37.0143C111.855 37.7009 87.8832 36.8076 64.6178 34.3645C52.0145 33.0943 39.8885 31.0434 28.6057 28.2735C22.6897 26.8667 17.2949 25.0748 12.6054 22.9588C10.845 22.1454 9.28224 21.254 7.94238 20.299C3.87373 17.3286 4.51377 14.4083 9.9653 11.9438C12.7993 10.6991 15.9695 9.61079 19.4055 8.70294C26.9713 6.66424 35.4058 5.59731 44.046 4.8209C60.6406 3.30815 77.4066 2.86735 97.1556 2.88238Z" fill="#43BB02" fill-opacity="0.3"/>
</svg>
