<svg width="105" height="38" viewBox="0 0 105 38" fill="none" xmlns="http://www.w3.org/2000/svg">
<path d="M103.294 19.4299C103.361 15.6723 103.38 12.4781 102.221 10.3424C103.647 7.02152 103.727 3.72688 99.9654 1.13252C98.1712 -0.104964 96.7494 -0.238904 95.6129 0.301223C94.5022 0.238621 93.5837 1.11505 92.8024 2.45154C90.8662 1.45718 88.5063 1.47465 86.1819 3.02515C85.8965 3.21587 85.632 3.47211 85.3822 3.78075C84.8997 2.98876 84.2028 2.24481 83.2464 1.56783C81.309 0.1964 79.8039 0.146901 78.6221 0.857365C77.4966 0.9156 76.5977 1.85464 75.847 3.21733C73.3757 2.52142 70.6667 2.70777 69.1261 3.83898C68.9706 3.95254 68.8224 4.08794 68.6791 4.23935C68.1954 3.43716 67.4936 2.68448 66.5262 2.00022C64.5887 0.628794 63.0837 0.579294 61.9019 1.28976C60.7764 1.34799 59.8775 2.28703 59.1268 3.64972C56.6554 2.95382 53.9465 3.14017 52.4059 4.27138C52.2504 4.38494 52.1022 4.52033 51.9589 4.67174C51.4752 3.86956 50.7734 3.11687 49.8059 2.43262C47.8685 1.06264 46.3634 1.01169 45.1829 1.72215C44.0574 1.78039 43.1585 2.71942 42.4078 4.08211C39.9365 3.38621 37.2275 3.57256 35.6869 4.70377C35.5314 4.81733 35.3832 4.95418 35.2399 5.10559C34.7562 4.30341 34.0544 3.55072 33.0882 2.86792C31.152 1.49795 29.6469 1.44845 28.4663 2.15746C27.3397 2.21569 26.4395 3.15473 25.6888 4.52033C23.2162 3.82588 20.5085 4.0166 18.9679 5.14781C17.8082 6.00095 17.0317 7.86301 16.2296 9.76437C15.9908 9.95655 15.785 10.1808 15.6197 10.4399C15.6013 10.4676 15.5817 10.4952 15.5621 10.5229C14.8629 9.7338 14.0558 9.06847 13.3039 8.60113C12.6205 7.91251 11.8955 7.60241 11.1791 7.85864C10.546 8.0843 10.2018 8.52834 10.0806 9.11651C8.46282 6.6954 6.06005 4.10832 4.54515 5.18566C4.36513 5.46082 4.31002 5.80295 4.34798 6.19167C3.65483 5.90486 3.08536 5.89613 2.72409 6.25573C2.4265 7.17292 3.22742 8.98548 4.53536 11.0179C2.79022 10.8068 1.98562 11.9889 4.77294 14.3358C5.65836 15.1686 6.28784 15.748 6.72259 16.1367C6.88302 16.3245 7.07406 16.5429 7.2994 16.7991C7.31165 16.8792 7.33614 16.9767 7.37043 17.0728C7.32022 17.1354 7.27001 17.201 7.21735 17.2665C7.0214 17.1558 6.82179 17.0554 6.61972 16.9651C6.61972 16.8836 6.61972 16.8792 6.61972 16.9651C6.57073 16.9433 6.52175 16.9229 6.47153 16.9025C4.12999 14.528 1.3733 12.58 0.0812859 13.8481C-0.415924 15.2006 1.44923 17.2621 3.45766 18.996C1.7211 18.9931 0.819753 20.0093 3.1368 21.6879C3.09271 21.6588 3.10618 21.669 3.23722 21.7607C3.54706 21.9733 3.8569 22.1873 4.16673 22.3999C4.08468 22.7726 4.04059 23.1351 4.03202 23.4845C3.87894 23.5733 3.72341 23.6636 3.5642 23.7611C2.55999 24.2707 2.03216 25.9464 2.31996 27.708C1.66599 29.8961 2.28199 32.2226 5.94616 33.9303C6.23273 34.0643 6.51562 34.1778 6.79729 34.2768C7.61536 37.9558 10.2778 39.0463 15.9749 36.746C16.1451 36.7242 16.3178 36.6979 16.4917 36.663C18.8895 36.1899 20.9739 34.8636 22.8182 33.067C23.1036 33.182 23.411 33.2868 23.7416 33.3815C24.0135 35.1897 25.0067 36.6426 27.1951 37.4288C32.3901 39.2938 35.7971 36.3456 38.5612 32.1527C39.0853 32.4643 39.7136 32.7322 40.4606 32.9476C40.7325 34.7558 41.7257 36.2088 43.9141 36.9949C49.1079 38.8599 52.5161 35.9118 55.2802 31.7203C55.8043 32.0319 56.4326 32.2998 57.1784 32.5152C57.4502 34.3234 58.4434 35.7764 60.6319 36.5626C65.8269 38.4275 69.2351 35.4794 71.9979 31.2865C72.5221 31.598 73.1503 31.8659 73.8974 32.0814C74.1692 33.8896 75.1624 35.3425 77.3509 36.1287C82.5275 37.9864 85.9308 35.0645 88.6887 30.8963C89.1786 31.1962 89.7076 31.4073 90.2367 31.5384C90.3334 32.4555 90.5906 33.2883 91.0548 33.99C92.3982 36.0166 96.4188 36.5334 97.963 34.8184C101.835 35.376 102.396 33.5169 101.729 31.138C104.277 30.6779 104.361 28.9615 103.699 26.7005C105.108 25.233 104.457 22.1276 103.292 19.4313L103.294 19.4299ZM32.6191 5.0954C32.6596 5.05027 32.6987 5.00659 32.7392 4.96437C32.6963 5.01096 32.6559 5.05464 32.6191 5.0954Z" fill="#0047B1" fill-opacity="0.4"/>
</svg>
