<svg width="85" height="39" viewBox="0 0 85 39" fill="none" xmlns="http://www.w3.org/2000/svg">
<path d="M37.7088 2.32769C46.9176 2.56312 57.1866 3.47478 67.2692 6.1847C70.4009 7.02623 73.4794 8.02804 76.3848 9.69106C77.6968 10.4213 78.9393 11.3008 80.0932 12.3158C80.932 13.0943 81.6372 14.0399 82.1736 15.1059C83.4423 17.6104 83.0874 20.1801 81.1489 22.0435C79.9876 23.1362 78.7125 24.0648 77.3519 24.8085C73.4218 26.9221 69.2985 28.5431 65.0557 29.6423C61.5466 30.5284 57.9753 31.0648 54.3831 31.2452C53.9595 31.2254 53.5361 31.2898 53.1322 31.4355C52.8394 31.5858 52.4446 32.0516 52.4801 32.3221C52.5314 32.5344 52.6204 32.7326 52.7416 32.9049C52.8629 33.0771 53.0139 33.2197 53.1854 33.3239C53.545 33.452 53.9254 33.4879 54.2988 33.4291C60.1364 33.4943 65.7743 32.1769 71.2615 30.048C73.9361 28.993 76.5573 27.7723 79.1129 26.3914C80.4712 25.6372 81.7201 24.6542 82.8168 23.4761C85.119 21.0417 85.5892 17.7557 84.2806 14.5198C83.5942 12.8662 82.5694 11.4206 81.2909 10.3022C79.0463 8.26347 76.4647 6.96111 73.7766 5.88916C68.5866 3.81039 63.206 2.62825 57.7676 1.75666C51.3001 0.720436 44.7815 0.141582 38.25 0.0235082C30.4207 -0.116746 22.6403 0.334073 14.9929 2.37277C11.9403 3.13787 9.00864 4.42324 6.29864 6.1847C4.50947 7.29629 2.93976 8.80809 1.68537 10.6278C-0.310751 13.6733 -0.510366 16.9092 0.962331 20.2753C1.82323 22.1264 2.98668 23.7767 4.39124 25.1391C8.01531 28.8709 12.287 31.3704 16.8116 33.354C22.7112 35.9437 28.8593 37.3613 35.1227 38.2329C43.1231 39.2689 51.2028 39.2555 59.2004 38.1928C66.1248 37.3262 72.9515 35.8936 79.5032 33.1035C80.3416 32.7429 81.1489 32.2971 81.9651 31.8713C82.5329 31.5708 82.9011 31.1049 82.6571 30.3686C82.4753 29.8026 81.9252 29.6322 81.1933 30.0029C77.068 32.1168 72.6809 33.1787 68.285 34.2206C63.138 35.3915 57.9226 36.1399 52.6797 36.4596C43.4142 37.1462 34.1099 36.2529 25.08 33.8098C20.1883 32.5396 15.4818 30.4887 11.1027 27.7188C8.80652 26.312 6.71264 24.5201 4.89249 22.4041C4.20924 21.5907 3.6027 20.6993 3.08266 19.7443C1.5035 16.7739 1.75192 13.8536 3.86781 11.3891C4.96777 10.1444 6.1982 9.0561 7.5318 8.14825C10.4683 6.10955 13.742 5.04262 17.0955 4.26621C23.5363 2.75346 30.0437 2.31267 37.7088 2.32769Z" fill="#43BB02" fill-opacity="0.3"/>
</svg>
