<svg width="83" height="27" viewBox="0 0 83 27" fill="none" xmlns="http://www.w3.org/2000/svg">
<path d="M82.0421 13.8054C82.0956 11.1356 82.1102 8.86603 81.19 7.34851C82.3222 4.98897 82.3864 2.64805 79.3983 0.804688C77.9733 -0.07458 76.844 -0.169748 75.9414 0.214027C75.0591 0.169546 74.3296 0.792275 73.709 1.74188C72.1712 1.03537 70.2968 1.04778 68.4507 2.14945C68.224 2.28496 68.0139 2.46702 67.8155 2.68632C67.4323 2.12359 66.8788 1.595 66.1191 1.11398C64.5803 0.139548 63.3849 0.104377 62.4462 0.60918C61.5523 0.650558 60.8384 1.31777 60.2421 2.286C58.2792 1.79154 56.1276 1.92395 54.904 2.7277C54.7805 2.80839 54.6628 2.90459 54.549 3.01217C54.1647 2.4422 53.6074 1.90739 52.839 1.42121C51.3002 0.446774 50.1047 0.411604 49.1661 0.916407C48.2722 0.957784 47.5582 1.62499 46.962 2.59322C44.9991 2.09876 42.8475 2.23117 41.6238 3.03493C41.5003 3.11561 41.3826 3.21181 41.2688 3.3194C40.8846 2.74942 40.3272 2.21462 39.5588 1.72844C38.02 0.755035 36.8246 0.71883 35.8869 1.22363C34.993 1.26501 34.279 1.93222 33.6828 2.90045C31.7199 2.40599 29.5683 2.5384 28.3446 3.34215C28.2211 3.42284 28.1034 3.52008 27.9896 3.62766C27.6054 3.05768 27.048 2.52288 26.2806 2.03773C24.7427 1.06433 23.5473 1.02916 22.6096 1.53293C21.7147 1.57431 20.9998 2.24152 20.4036 3.21181C18.4397 2.71839 16.2891 2.8539 15.0654 3.65766C14.1443 4.26383 13.5276 5.58687 12.8905 6.93784C12.7008 7.07439 12.5374 7.23369 12.4061 7.41782C12.3915 7.43748 12.3759 7.45713 12.3604 7.47678C11.805 6.91612 11.164 6.44338 10.5667 6.11133C10.024 5.62204 9.44812 5.40171 8.8791 5.58377C8.37622 5.74411 8.10289 6.05961 8.00659 6.47752C6.72167 4.75726 4.81325 2.91907 3.61003 3.68455C3.46704 3.88006 3.42327 4.12315 3.45342 4.39934C2.90288 4.19556 2.45058 4.18935 2.16363 4.44486C1.92727 5.09655 2.56341 6.38442 3.60224 7.82849C2.21616 7.6785 1.5771 8.51846 3.79095 10.186C4.4942 10.7777 4.99417 11.1894 5.33947 11.4656C5.4669 11.599 5.61864 11.7542 5.79761 11.9362C5.80734 11.9931 5.82679 12.0624 5.85403 12.1307C5.81415 12.1752 5.77427 12.2217 5.73244 12.2683C5.57681 12.1897 5.41826 12.1183 5.25777 12.0542C5.25777 11.9931 5.25777 11.9962 5.25777 12.0542C5.21886 12.0386 5.17995 12.0242 5.14007 12.0097C3.28028 10.3225 1.09075 8.93844 0.064562 9.83943C-0.330351 10.8004 1.15106 12.2652 2.74627 13.4972C1.367 13.4951 0.651096 14.2172 2.49143 15.4099C2.45641 15.3892 2.46711 15.3964 2.57119 15.4616C2.81728 15.6126 3.06337 15.7647 3.30946 15.9157C3.24429 16.1805 3.20928 16.4381 3.20247 16.6863C3.08088 16.7494 2.95735 16.8136 2.8309 16.8829C2.03329 17.2449 1.61406 18.4356 1.84264 19.6872C1.32323 21.242 1.81249 22.895 4.72279 24.1084C4.9504 24.2036 5.17509 24.2843 5.39881 24.3546C6.04857 26.9686 8.1632 27.7434 12.6882 26.109C12.8234 26.0935 12.9605 26.0749 13.0986 26.05C15.0032 25.7138 16.6587 24.7715 18.1236 23.495C18.3502 23.5767 18.5944 23.6512 18.857 23.7184C19.0729 25.0032 19.8618 26.0356 21.6 26.5941C25.7261 27.9193 28.4322 25.8245 30.6275 22.8454C31.0438 23.0667 31.5428 23.2571 32.1362 23.4102C32.3521 24.6949 33.141 25.7273 34.8792 26.2859C39.0044 27.611 41.7114 25.5163 43.9067 22.5381C44.323 22.7595 44.822 22.9498 45.4144 23.1029C45.6303 24.3877 46.4192 25.4201 48.1574 25.9787C52.2836 27.3038 54.9906 25.209 57.1849 22.2299C57.6013 22.4512 58.1002 22.6416 58.6936 22.7947C58.9095 24.0794 59.6984 25.1118 61.4366 25.6704C65.5482 26.9903 68.2513 24.9142 70.4418 21.9526C70.8308 22.1657 71.2511 22.3157 71.6713 22.4088C71.7481 23.0605 71.9524 23.6522 72.321 24.1508C73.3881 25.5907 76.5814 25.958 77.808 24.7394C80.8836 25.1356 81.3291 23.8146 80.799 22.1244C82.8232 21.7975 82.8893 20.5779 82.3641 18.9714C83.4827 17.9287 82.9662 15.7223 82.0402 13.8065L82.0421 13.8054ZM25.908 3.62042C25.9401 3.58835 25.9713 3.55732 26.0033 3.52732C25.9693 3.56042 25.9372 3.59145 25.908 3.62042Z" fill="#43BB02" fill-opacity="0.2"/>
</svg>
