<svg width="11" height="9" viewBox="0 0 11 9" fill="none" xmlns="http://www.w3.org/2000/svg">
<path opacity="0.8" d="M8.64988 8.976C7.90321 8.976 7.28454 8.73067 6.79388 8.24C6.32454 7.74933 6.08988 7.04533 6.08988 6.128C6.08988 5.14666 6.36721 4.176 6.92188 3.216C7.49788 2.256 8.29788 1.50933 9.32188 0.975998L10.0579 2.096C8.94854 2.864 8.28721 3.83467 8.07388 5.008C8.26588 4.92267 8.48988 4.88 8.74588 4.88C9.34321 4.88 9.83388 5.072 10.2179 5.456C10.6019 5.84 10.7939 6.33067 10.7939 6.928C10.7939 7.52533 10.5912 8.016 10.1859 8.4C9.78054 8.784 9.26854 8.976 8.64988 8.976ZM2.76188 8.976C2.01521 8.976 1.39654 8.73067 0.905875 8.24C0.436542 7.74933 0.201875 7.04533 0.201875 6.128C0.201875 5.14666 0.479208 4.176 1.03387 3.216C1.60988 2.256 2.40988 1.50933 3.43388 0.975998L4.16988 2.096C3.06054 2.864 2.39921 3.83467 2.18588 5.008C2.37788 4.92267 2.60188 4.88 2.85788 4.88C3.45521 4.88 3.94588 5.072 4.32988 5.456C4.71388 5.84 4.90588 6.33067 4.90588 6.928C4.90588 7.52533 4.70321 8.016 4.29788 8.4C3.89254 8.784 3.38054 8.976 2.76188 8.976Z" fill="black"/>
</svg>
