<svg width="81" height="22" viewBox="0 0 81 22" fill="none" xmlns="http://www.w3.org/2000/svg">
<path fill-rule="evenodd" clip-rule="evenodd" d="M69.6717 5.10564C74.8154 6.845 81.1086 8.0175 81.0009 11.4902C80.8357 16.8575 52.3438 22.8214 30.8348 21.9085C16.9624 21.3177 1.04257 18.0807 0.0799131 13.5071C-1.60834 5.46068 23.7872 -0.697177 44.585 0.0636044C54.8438 0.43952 63.7305 3.09778 69.6717 5.10266V5.10564ZM74.5281 7.45661C79.0612 10.8995 72.3729 15.2136 70.4835 16.8664C78.7666 15.7834 84.5282 9.58083 74.5281 7.45661ZM71.2881 6.4482C78.8888 11.5559 66.0725 16.1743 62.387 18.5461C71.5539 17.3975 79.3414 10.5236 71.2881 6.4482ZM22.7384 2.08042C6.251 3.36032 -7.86563 15.3956 12.2209 19.2174C17.0989 18.3969 21.8332 21.8011 28.4066 20.2258C20.734 19.7126 13.8589 17.0842 8.98812 16.5293C10.2525 17.1409 14.0457 18.4417 13.0327 18.8803C-4.88426 13.7905 11.0643 4.05547 22.7384 2.08042ZM7.36452 10.1447C3.03974 15.3687 15.4537 18.1612 22.7384 18.5461C16.5098 16.2041 7.89614 14.8526 7.36452 10.1447ZM16.2655 5.43979C9.13898 6.84798 5.90617 14.2768 14.6491 14.8496C12.0054 14.1634 14.2253 11.7617 11.4091 10.4818C10.2453 11.9915 14.1606 13.1222 12.2209 13.8412C7.08435 10.5325 15.1448 7.04489 16.2655 5.43979ZM38.1122 1.40914C47.4299 1.41511 38.9312 0.815435 34.0676 1.07201C27.5157 1.41809 16.2368 3.91226 16.2655 5.10564C22.0128 3.238 29.2471 1.98495 38.1122 1.40914ZM47.825 0.737865C46.9629 0.722948 45.7704 0.895988 47.0132 1.075C56.4027 2.19081 58.2131 1.99987 47.825 0.737865ZM47.0132 2.08042C46.0577 1.69257 44.154 1.69854 42.1568 1.74329C41.0145 2.81733 46.9988 2.59357 47.0132 2.08042ZM18.6937 11.8274C23.4065 6.72864 36.5748 5.13846 50.2532 3.76309C32.3219 3.26187 19.6349 6.16477 18.6937 11.8274ZM18.6937 13.5071C19.7857 16.3831 33.2127 17.7525 41.3522 16.1951C39.0246 16.2638 37.2429 16.1086 36.4958 15.5239C50.9285 17.0812 62.229 13.2057 68.0553 9.13928C61.2232 -0.097502 16.0141 6.47505 18.6937 13.5071ZM25.1666 16.8664C31.7543 18.74 44.3336 17.2215 51.0578 17.5377C50.1023 17.5914 48.7589 17.481 48.6296 17.8748C52.1714 17.666 55.5981 17.4094 57.5306 16.5293C49.0535 16.8903 34.3621 17.2722 25.1666 16.8664ZM48.6296 16.1951C59.1614 16.5144 71.2952 13.9904 67.2435 10.4818C63.4144 13.3728 55.555 14.59 48.6296 16.1951ZM68.0481 8.13087C67.4087 6.37361 63.4 4.24641 59.1471 5.10564C63.0695 5.71725 65.1026 7.11053 68.0481 8.13087ZM57.5306 3.76011C49.736 2.63534 51.69 4.7357 57.5306 3.76011V3.76011ZM17.882 15.5239C9.06714 10.2163 21.6967 5.98576 30.0158 3.76309C16.2655 4.00475 7.68062 11.2008 17.882 15.5239ZM70.4763 11.8274C70.5625 10.449 70.6128 9.08259 68.8599 8.468C68.9173 9.78967 69.2478 10.995 70.4763 11.8274ZM38.924 19.2204C48.2417 20.369 60.081 17.9524 62.387 16.1951C56.8625 18.1553 47.7101 18.6117 38.924 19.2204ZM27.5948 18.8832C30.6408 18.755 33.7156 20.3511 36.4958 19.2204C31.9196 18.9101 26.9769 18.3253 24.3548 18.8832C25.7126 19.4173 31.2083 19.9573 27.5948 18.8832ZM34.8722 20.9001C39.2329 20.8076 44.8724 21.2461 47.0132 20.2288C43.1267 20.5182 36.2228 19.5575 34.8722 20.9001Z" fill="#875EFF" fill-opacity="0.4"/>
</svg>
