<svg width="116" height="23" viewBox="0 0 116 23" fill="none" xmlns="http://www.w3.org/2000/svg">
<path d="M51.4614 21.6244C64.0287 21.4916 78.0428 20.9774 91.8027 19.4487C96.0765 18.974 100.278 18.4089 104.243 17.4707C106.033 17.0588 107.729 16.5627 109.304 15.9901C110.448 15.551 111.411 15.0175 112.143 14.4162C113.874 13.0034 113.39 11.5539 110.744 10.5027C109.16 9.88629 107.419 9.36249 105.563 8.94296C100.199 7.75066 94.5721 6.83629 88.7819 6.21622C83.993 5.71633 79.1193 5.41377 74.2169 5.31201C73.6388 5.32317 73.061 5.28683 72.5098 5.20464C72.1103 5.11987 71.5715 4.85709 71.6199 4.7045C71.6899 4.58477 71.8114 4.47293 71.9768 4.37578C72.1423 4.27863 72.3483 4.1982 72.5825 4.13937C73.0732 4.06714 73.5923 4.04687 74.1019 4.08003C82.0685 4.0433 89.7626 4.78644 97.2509 5.98734C100.901 6.58246 104.478 7.27108 107.966 8.05006C109.82 8.47551 111.524 9.03002 113.021 9.69459C116.162 11.0678 116.804 12.9215 115.018 14.7468C114.081 15.6796 112.683 16.4951 110.938 17.126C107.875 18.2761 104.352 19.0107 100.683 19.6154C93.6006 20.788 86.2576 21.4549 78.8358 21.9466C70.0095 22.5311 61.1135 22.8576 52.2 22.9242C41.5153 23.0034 30.8973 22.749 20.4609 21.599C16.295 21.1674 12.2941 20.4423 8.59579 19.4487C6.1541 18.8216 4.0119 17.9688 2.30004 16.9424C-0.424084 15.2244 -0.6965 13.399 1.3133 11.5002C2.48817 10.456 4.07594 9.52499 5.99275 8.75647C10.9385 6.65137 16.7682 5.24138 22.9429 4.12242C30.9942 2.66157 39.3845 1.86191 47.9322 1.37025C58.8503 0.785787 69.8767 0.793373 80.7912 1.39285C90.2409 1.88169 99.5574 2.68982 108.499 4.2637C109.643 4.46715 110.744 4.71863 111.858 4.95881C112.633 5.12835 113.136 5.39113 112.803 5.8065C112.554 6.1258 111.804 6.22187 110.805 6.01278C105.175 4.82036 99.1881 4.22132 93.1889 3.63358C86.1647 2.97304 79.0472 2.55092 71.8923 2.37053C59.2476 1.98323 46.55 2.48714 34.2268 3.86529C27.5511 4.5818 21.1282 5.73876 15.1519 7.30127C12.0183 8.09481 9.16078 9.10565 6.67681 10.2993C5.74437 10.7581 4.91662 11.261 4.20692 11.7997C2.05184 13.4753 2.39085 15.1226 5.27843 16.5129C6.77954 17.215 8.45872 17.8289 10.2787 18.341C14.2862 19.4911 18.7538 20.0929 23.3303 20.5309C32.1201 21.3843 41.0008 21.6329 51.4614 21.6244Z" fill="#78AEFF" fill-opacity="0.5"/>
</svg>
